{
  "version": "1.1.5",
  "modules": [
    {
      "id": 1,
      "plugin": "Core",
      "version": "1.1.5",
      "model": "AudioInterface",
      "params": [],
      "leftModuleId": 43,
      "rightModuleId": 8,
      "data": {
        "audio": {
          "driver": 5,
          "deviceName": "Apple Inc.: Built-in Output",
          "offset": 0,
          "maxChannels": 8,
          "sampleRate": 44100,
          "blockSize": 256
        }
      },
      "pos": [
        93,
        1
      ]
    },
    {
      "id": 7,
      "plugin": "Fundamental",
      "version": "1.2.1",
      "model": "Scope",
      "params": [
        {
          "id": 0,
          "value": 0.0
        },
        {
          "id": 1,
          "value": 0.0
        },
        {
          "id": 2,
          "value": 0.0
        },
        {
          "id": 3,
          "value": 0.0
        },
        {
          "id": 4,
          "value": 14.0
        },
        {
          "id": 5,
          "value": 0.0
        },
        {
          "id": 6,
          "value": 0.0
        },
        {
          "id": 7,
          "value": 0.0
        }
      ],
      "leftModuleId": 29,
      "rightModuleId": 27,
      "data": {
        "lissajous": 0,
        "external": 0
      },
      "pos": [
        30,
        1
      ]
    },
    {
      "id": 8,
      "plugin": "Core",
      "version": "1.1.5",
      "model": "Notes",
      "params": [],
      "leftModuleId": 1,
      "text": "Demo patch instructions:\n\n1. Choose an audio driver and device in the AUDIO-8 module.\n\n2. Use the QWERTY and ZXCVB rows of your keyboard to generate MIDI notes, which are converted to 1V/oct and GATE signals.\n\n3. Drag knobs up/down. Hold Ctrl (Cmd on Mac) while dragging to fine-tune. Right-click knobs to edit, or double-click to initialize.\n\n4. Drag ports to create and move cables. Stack multiple cables on outputs by holding Ctrl (Cmd on Mac) and dragging from an output.\n\n5. Right-click on an empty rack space to add new modules.",
      "pos": [
        103,
        1
      ]
    },
    {
      "id": 27,
      "plugin": "VCV-Prototype",
      "version": "1.1.1",
      "model": "Prototype",
      "params": [
        {
          "id": 0,
          "value": 0.659501374
        },
        {
          "id": 1,
          "value": 0.0
        },
        {
          "id": 2,
          "value": 0.0
        },
        {
          "id": 3,
          "value": 0.0
        },
        {
          "id": 4,
          "value": 0.0
        },
        {
          "id": 5,
          "value": 0.0
        },
        {
          "id": 6,
          "value": 0.0
        },
        {
          "id": 7,
          "value": 0.0
        },
        {
          "id": 8,
          "value": 0.0
        },
        {
          "id": 9,
          "value": 0.0
        },
        {
          "id": 10,
          "value": 0.0
        },
        {
          "id": 11,
          "value": 0.0
        }
      ],
      "leftModuleId": 7,
      "rightModuleId": 31,
      "data": {
        "path": "/Users/mp/_gitshows/gitShow4/module4.js",
        "script": "config.frameDivider = 1\nconfig.bufferSize = 16\n\nvar phase = 0\nvar phase2 = 0\nfunction process(block) {\n\t// Knob ranges from -5 to 5 octaves\n\tvar pitch = block.knobs[0] * 10 - 5\n\t// Input follows 1V/oct standard\n\tpitch += block.inputs[1][0]\n\n\tif (block.inputs[0][0] > 0.){\n\t\tpitch = block.inputs[0][0] * block.inputs[1][0]\n\t}\n\n\n\t// The relationship between 1V/oct pitch and frequency is `freq = 2^pitch`.\n\t// Default frequency is middle C (C4) in Hz.\n\t// https://vcvrack.com/manual/VoltageStandards.html#pitch-and-frequencies\n\tvar freq = 261.6256 * Math.pow(2, pitch)\n\n\tdisplay(\"Freq: \" + freq.toFixed(3) + \" Hz\")\n\n\t// Set all samples in output buffer\n\tvar deltaPhase = config.frameDivider * block.sampleTime * freq\n\tfor (var i = 0; i < block.bufferSize; i++) {\n\t\t// Accumulate phase\n\t\tphase += deltaPhase\n\t\t// Wrap phase around range [0, 1]\n\t\tphase %= 1\n\t\t// Convert phase to sine output\n\t\tblock.outputs[0][i] = Math.sin(2 * Math.PI * phase) * 5\n\t\t// Convert phase to cosine output\n\t\tblock.outputs[1][i] = Math.cos(2 * Math.PI * phase) * 5\n\t}\n\n\n\n}"
      },
      "pos": [
        43,
        1
      ]
    },
    {
      "id": 29,
      "plugin": "Fundamental",
      "version": "1.2.1",
      "model": "LFO",
      "params": [
        {
          "id": 0,
          "value": 0.0
        },
        {
          "id": 1,
          "value": 0.0
        },
        {
          "id": 2,
          "value": -2.40200853
        },
        {
          "id": 3,
          "value": 0.127500027
        },
        {
          "id": 4,
          "value": 0.0
        },
        {
          "id": 5,
          "value": 0.5
        },
        {
          "id": 6,
          "value": 0.0
        }
      ],
      "rightModuleId": 7,
      "pos": [
        20,
        1
      ]
    },
    {
      "id": 31,
      "plugin": "Fundamental",
      "version": "1.2.1",
      "model": "ADSR",
      "params": [
        {
          "id": 0,
          "value": 0.571500123
        },
        {
          "id": 1,
          "value": 0.219499856
        },
        {
          "id": 2,
          "value": 0.250999868
        },
        {
          "id": 3,
          "value": 0.0994999856
        }
      ],
      "leftModuleId": 27,
      "rightModuleId": 34,
      "pos": [
        58,
        1
      ]
    },
    {
      "id": 32,
      "plugin": "AudibleInstruments",
      "version": "1.0.0",
      "model": "Branches",
      "params": [
        {
          "id": 0,
          "value": 0.858499944
        },
        {
          "id": 1,
          "value": 0.5
        },
        {
          "id": 2,
          "value": 0.0
        },
        {
          "id": 3,
          "value": 0.0
        }
      ],
      "leftModuleId": 40,
      "data": {
        "modes": [
          false,
          false
        ]
      },
      "pos": [
        45,
        2
      ]
    },
    {
      "id": 33,
      "plugin": "Fundamental",
      "version": "1.2.1",
      "model": "Delay",
      "params": [
        {
          "id": 0,
          "value": 0.113500141
        },
        {
          "id": 1,
          "value": 0.5
        },
        {
          "id": 2,
          "value": 0.5
        },
        {
          "id": 3,
          "value": 0.5
        }
      ],
      "pos": [
        84,
        2
      ]
    },
    {
      "id": 34,
      "plugin": "Fundamental",
      "version": "1.2.1",
      "model": "VCA",
      "params": [
        {
          "id": 0,
          "value": 1.0
        },
        {
          "id": 1,
          "value": 1.0
        }
      ],
      "leftModuleId": 31,
      "pos": [
        66,
        1
      ]
    },
    {
      "id": 35,
      "plugin": "Fundamental",
      "version": "1.2.1",
      "model": "ADSR",
      "params": [
        {
          "id": 0,
          "value": 0.199500129
        },
        {
          "id": 1,
          "value": 0.650858998
        },
        {
          "id": 2,
          "value": 0.383463293
        },
        {
          "id": 3,
          "value": 0.205070153
        }
      ],
      "pos": [
        58,
        2
      ]
    },
    {
      "id": 37,
      "plugin": "Befaco",
      "version": "1.0.0",
      "model": "Rampage",
      "params": [
        {
          "id": 0,
          "value": 1.0
        },
        {
          "id": 1,
          "value": 1.0
        },
        {
          "id": 2,
          "value": -0.14923048
        },
        {
          "id": 3,
          "value": 0.237159014
        },
        {
          "id": 4,
          "value": 0.0
        },
        {
          "id": 5,
          "value": 0.0
        },
        {
          "id": 6,
          "value": 0.944923103
        },
        {
          "id": 7,
          "value": 0.500999987
        },
        {
          "id": 8,
          "value": 0.415880293
        },
        {
          "id": 9,
          "value": 0.28341341
        },
        {
          "id": 10,
          "value": 0.0
        },
        {
          "id": 11,
          "value": 1.0
        },
        {
          "id": 12,
          "value": 0.393000275
        }
      ],
      "pos": [
        12,
        2
      ]
    },
    {
      "id": 39,
      "plugin": "VCV-Recorder",
      "version": "1.0.1",
      "model": "Recorder",
      "params": [
        {
          "id": 0,
          "value": 1.0
        },
        {
          "id": 1,
          "value": 0.0
        }
      ],
      "data": {
        "format": "wav",
        "path": "/Users/mp/_gitshows/gitShow4/recording4.wav",
        "incrementPath": true,
        "sampleRate": 44100,
        "depth": 16,
        "bitRate": 320000
      },
      "pos": [
        94,
        2
      ]
    },
    {
      "id": 40,
      "plugin": "Fundamental",
      "version": "1.2.1",
      "model": "LFO",
      "params": [
        {
          "id": 0,
          "value": 1.0
        },
        {
          "id": 1,
          "value": 1.0
        },
        {
          "id": 2,
          "value": -8.0
        },
        {
          "id": 3,
          "value": 0.0
        },
        {
          "id": 4,
          "value": 0.0
        },
        {
          "id": 5,
          "value": 0.5
        },
        {
          "id": 6,
          "value": 0.0
        }
      ],
      "rightModuleId": 32,
      "pos": [
        35,
        2
      ]
    },
    {
      "id": 41,
      "plugin": "AudibleInstruments",
      "version": "1.0.0",
      "model": "Shades",
      "params": [
        {
          "id": 0,
          "value": 0.36649996
        },
        {
          "id": 1,
          "value": 0.5
        },
        {
          "id": 2,
          "value": 0.5
        },
        {
          "id": 3,
          "value": 1.0
        },
        {
          "id": 4,
          "value": 1.0
        },
        {
          "id": 5,
          "value": 1.0
        }
      ],
      "pos": [
        0,
        1
      ]
    },
    {
      "id": 43,
      "plugin": "Fundamental",
      "version": "1.2.1",
      "model": "Scope",
      "params": [
        {
          "id": 0,
          "value": 0.0
        },
        {
          "id": 1,
          "value": 0.0
        },
        {
          "id": 2,
          "value": 0.0
        },
        {
          "id": 3,
          "value": 0.0
        },
        {
          "id": 4,
          "value": 14.0
        },
        {
          "id": 5,
          "value": 0.0
        },
        {
          "id": 6,
          "value": 0.0
        },
        {
          "id": 7,
          "value": 0.0
        }
      ],
      "rightModuleId": 1,
      "data": {
        "lissajous": 0,
        "external": 0
      },
      "pos": [
        80,
        1
      ]
    },
    {
      "id": 45,
      "plugin": "Befaco",
      "version": "1.0.0",
      "model": "DualAtenuverter",
      "params": [
        {
          "id": 0,
          "value": -0.67500037
        },
        {
          "id": 1,
          "value": 0.0
        },
        {
          "id": 2,
          "value": 0.0
        },
        {
          "id": 3,
          "value": 0.0
        }
      ],
      "pos": [
        78,
        2
      ]
    },
    {
      "id": 47,
      "plugin": "Fundamental",
      "version": "1.2.1",
      "model": "VCMixer",
      "params": [
        {
          "id": 0,
          "value": 1.0
        },
        {
          "id": 1,
          "value": 1.03096318
        },
        {
          "id": 2,
          "value": 1.05217493
        },
        {
          "id": 3,
          "value": 1.0
        },
        {
          "id": 4,
          "value": 1.0
        }
      ],
      "pos": [
        70,
        0
      ]
    },
    {
      "id": 48,
      "plugin": "AudibleInstruments",
      "version": "1.0.0",
      "model": "Elements",
      "params": [
        {
          "id": 0,
          "value": 0.96259141
        },
        {
          "id": 1,
          "value": 0.598239481
        },
        {
          "id": 2,
          "value": 0.0467258655
        },
        {
          "id": 3,
          "value": 1.0
        },
        {
          "id": 4,
          "value": -0.482915878
        },
        {
          "id": 5,
          "value": 1.14212966
        },
        {
          "id": 6,
          "value": -0.343847752
        },
        {
          "id": 7,
          "value": 1.0
        },
        {
          "id": 8,
          "value": 0.954324126
        },
        {
          "id": 9,
          "value": 0.625716448
        },
        {
          "id": 10,
          "value": 0.426070839
        },
        {
          "id": 11,
          "value": 0.787870049
        },
        {
          "id": 12,
          "value": 0.994361162
        },
        {
          "id": 13,
          "value": 0.31267038
        },
        {
          "id": 14,
          "value": 0.800535142
        },
        {
          "id": 15,
          "value": 0.913986444
        },
        {
          "id": 16,
          "value": 1.8918345
        },
        {
          "id": 17,
          "value": -0.0745978132
        },
        {
          "id": 18,
          "value": -0.521967471
        },
        {
          "id": 19,
          "value": 0.994000018
        },
        {
          "id": 20,
          "value": -0.994000018
        },
        {
          "id": 21,
          "value": -0.679002464
        },
        {
          "id": 22,
          "value": 0.0727803707
        },
        {
          "id": 23,
          "value": 0.942303061
        },
        {
          "id": 24,
          "value": 0.974802256
        },
        {
          "id": 25,
          "value": -0.315208018
        },
        {
          "id": 26,
          "value": 1.72655106
        },
        {
          "id": 27,
          "value": 0.0
        }
      ],
      "rightModuleId": 49,
      "data": {
        "model": 1
      },
      "pos": [
        19,
        0
      ]
    },
    {
      "id": 49,
      "plugin": "Fundamental",
      "version": "1.2.1",
      "model": "Quantizer",
      "params": [],
      "leftModuleId": 48,
      "rightModuleId": 50,
      "data": {
        "enabledNotes": [
          false,
          false,
          false,
          true,
          false,
          false,
          false,
          false,
          false,
          false,
          true,
          false
        ]
      },
      "pos": [
        53,
        0
      ]
    },
    {
      "id": 50,
      "plugin": "Fundamental",
      "version": "1.2.1",
      "model": "Quantizer",
      "params": [],
      "leftModuleId": 49,
      "data": {
        "enabledNotes": [
          false,
          true,
          false,
          false,
          false,
          false,
          false,
          true,
          false,
          false,
          true,
          false
        ]
      },
      "pos": [
        56,
        0
      ]
    }
  ],
  "cables": [
    {
      "id": 341,
      "outputModuleId": 32,
      "outputId": 2,
      "inputModuleId": 31,
      "inputId": 4,
      "color": "#0986ad"
    },
    {
      "id": 347,
      "outputModuleId": 31,
      "outputId": 0,
      "inputModuleId": 34,
      "inputId": 0,
      "color": "#0c8e15"
    },
    {
      "id": 353,
      "outputModuleId": 32,
      "outputId": 0,
      "inputModuleId": 35,
      "inputId": 4,
      "color": "#c9b70e"
    },
    {
      "id": 340,
      "outputModuleId": 37,
      "outputId": 1,
      "inputModuleId": 32,
      "inputId": 0,
      "color": "#c91847"
    },
    {
      "id": 359,
      "outputModuleId": 29,
      "outputId": 3,
      "inputModuleId": 37,
      "inputId": 3,
      "color": "#c91847"
    },
    {
      "id": 354,
      "outputModuleId": 35,
      "outputId": 0,
      "inputModuleId": 34,
      "inputId": 3,
      "color": "#0c8e15"
    },
    {
      "id": 360,
      "outputModuleId": 34,
      "outputId": 0,
      "inputModuleId": 39,
      "inputId": 2,
      "color": "#0986ad"
    },
    {
      "id": 361,
      "outputModuleId": 33,
      "outputId": 0,
      "inputModuleId": 39,
      "inputId": 3,
      "color": "#c9b70e"
    },
    {
      "id": 362,
      "outputModuleId": 40,
      "outputId": 2,
      "inputModuleId": 32,
      "inputId": 2,
      "color": "#0c8e15"
    },
    {
      "id": 363,
      "outputModuleId": 40,
      "outputId": 1,
      "inputModuleId": 41,
      "inputId": 0,
      "color": "#c91847"
    },
    {
      "id": 366,
      "outputModuleId": 34,
      "outputId": 0,
      "inputModuleId": 43,
      "inputId": 0,
      "color": "#0986ad"
    },
    {
      "id": 367,
      "outputModuleId": 34,
      "outputId": 1,
      "inputModuleId": 43,
      "inputId": 1,
      "color": "#c9b70e"
    },
    {
      "id": 369,
      "outputModuleId": 45,
      "outputId": 0,
      "inputModuleId": 33,
      "inputId": 0,
      "color": "#c91847"
    },
    {
      "id": 372,
      "outputModuleId": 32,
      "outputId": 2,
      "inputModuleId": 37,
      "inputId": 2,
      "color": "#c91847"
    },
    {
      "id": 382,
      "outputModuleId": 48,
      "outputId": 1,
      "inputModuleId": 47,
      "inputId": 2,
      "color": "#c91847"
    },
    {
      "id": 386,
      "outputModuleId": 37,
      "outputId": 9,
      "inputModuleId": 47,
      "inputId": 5,
      "color": "#c91847"
    },
    {
      "id": 387,
      "outputModuleId": 37,
      "outputId": 7,
      "inputModuleId": 47,
      "inputId": 6,
      "color": "#0986ad"
    },
    {
      "id": 389,
      "outputModuleId": 40,
      "outputId": 1,
      "inputModuleId": 29,
      "inputId": 0,
      "color": "#0c8e15"
    },
    {
      "id": 392,
      "outputModuleId": 41,
      "outputId": 0,
      "inputModuleId": 49,
      "inputId": 0,
      "color": "#c9b70e"
    },
    {
      "id": 393,
      "outputModuleId": 40,
      "outputId": 3,
      "inputModuleId": 48,
      "inputId": 2,
      "color": "#0c8e15"
    },
    {
      "id": 394,
      "outputModuleId": 49,
      "outputId": 0,
      "inputModuleId": 48,
      "inputId": 8,
      "color": "#c91847"
    },
    {
      "id": 395,
      "outputModuleId": 49,
      "outputId": 0,
      "inputModuleId": 48,
      "inputId": 3,
      "color": "#0986ad"
    },
    {
      "id": 396,
      "outputModuleId": 49,
      "outputId": 0,
      "inputModuleId": 48,
      "inputId": 1,
      "color": "#c9b70e"
    },
    {
      "id": 397,
      "outputModuleId": 49,
      "outputId": 0,
      "inputModuleId": 48,
      "inputId": 0,
      "color": "#0c8e15"
    },
    {
      "id": 399,
      "outputModuleId": 27,
      "outputId": 0,
      "inputModuleId": 47,
      "inputId": 1,
      "color": "#c9b70e"
    },
    {
      "id": 401,
      "outputModuleId": 50,
      "outputId": 0,
      "inputModuleId": 27,
      "inputId": 0,
      "color": "#c91847"
    },
    {
      "id": 402,
      "outputModuleId": 40,
      "outputId": 2,
      "inputModuleId": 50,
      "inputId": 0,
      "color": "#0986ad"
    },
    {
      "id": 403,
      "outputModuleId": 47,
      "outputId": 1,
      "inputModuleId": 1,
      "inputId": 0,
      "color": "#0c8e15"
    },
    {
      "id": 404,
      "outputModuleId": 47,
      "outputId": 2,
      "inputModuleId": 1,
      "inputId": 1,
      "color": "#c91847"
    }
  ]
}