{
	"patcher" : 	{
		"fileversion" : 1,
		"appversion" : 		{
			"major" : 8,
			"minor" : 0,
			"revision" : 0,
			"architecture" : "x64",
			"modernui" : 1
		}
,
		"classnamespace" : "box",
		"rect" : [ 59.0, 104.0, 1100.0, 825.0 ],
		"bglocked" : 0,
		"openinpresentation" : 1,
		"default_fontsize" : 12.0,
		"default_fontface" : 0,
		"default_fontname" : "Arial",
		"gridonopen" : 1,
		"gridsize" : [ 15.0, 15.0 ],
		"gridsnaponopen" : 1,
		"objectsnaponopen" : 1,
		"statusbarvisible" : 2,
		"toolbarvisible" : 1,
		"lefttoolbarpinned" : 0,
		"toptoolbarpinned" : 0,
		"righttoolbarpinned" : 0,
		"bottomtoolbarpinned" : 0,
		"toolbars_unpinned_last_save" : 0,
		"tallnewobj" : 0,
		"boxanimatetime" : 200,
		"enablehscroll" : 1,
		"enablevscroll" : 1,
		"devicewidth" : 0.0,
		"description" : "",
		"digest" : "",
		"tags" : "",
		"style" : "",
		"subpatcher_template" : "",
		"boxes" : [ 			{
				"box" : 				{
					"id" : "obj-110",
					"maxclass" : "newobj",
					"numinlets" : 2,
					"numoutlets" : 1,
					"outlettype" : [ "int" ],
					"patching_rect" : [ 390.0, 342.0, 29.5, 22.0 ],
					"text" : "- 1"
				}

			}
, 			{
				"box" : 				{
					"format" : 6,
					"id" : "obj-109",
					"maxclass" : "flonum",
					"numinlets" : 1,
					"numoutlets" : 2,
					"outlettype" : [ "", "bang" ],
					"parameter_enable" : 0,
					"patching_rect" : [ 257.0, 24.0, 50.0, 22.0 ]
				}

			}
, 			{
				"box" : 				{
					"id" : "obj-98",
					"maxclass" : "comment",
					"numinlets" : 1,
					"numoutlets" : 0,
					"patching_rect" : [ 433.8330078125, -87.068359375, 118.93310546875, 20.0 ],
					"presentation" : 1,
					"presentation_linecount" : 2,
					"presentation_rect" : [ 21.0, 270.431640625, 85.0, 33.0 ],
					"text" : "Frequency Deviation"
				}

			}
, 			{
				"box" : 				{
					"id" : "obj-99",
					"maxclass" : "newobj",
					"numinlets" : 2,
					"numoutlets" : 2,
					"outlettype" : [ "", "" ],
					"patching_rect" : [ 396.8330078125, 0.0, 56.0, 22.0 ],
					"text" : "zl.lookup"
				}

			}
, 			{
				"box" : 				{
					"id" : "obj-100",
					"maxclass" : "multislider",
					"numinlets" : 1,
					"numoutlets" : 2,
					"outlettype" : [ "", "" ],
					"parameter_enable" : 0,
					"patching_rect" : [ 433.8330078125, -64.0, 73.6181640625, 62.0 ],
					"presentation" : 1,
					"presentation_rect" : [ 116.05999755859375, 232.86328125, 737.05999755859375, 113.431640625 ],
					"setminmax" : [ 0.0, 200.0 ],
					"setstyle" : 1,
					"size" : 16
				}

			}
, 			{
				"box" : 				{
					"id" : "obj-101",
					"maxclass" : "message",
					"numinlets" : 2,
					"numoutlets" : 1,
					"outlettype" : [ "" ],
					"patching_rect" : [ 396.8330078125, 48.0, 64.0, 22.0 ],
					"text" : "deviate $1"
				}

			}
, 			{
				"box" : 				{
					"id" : "obj-102",
					"maxclass" : "comment",
					"numinlets" : 1,
					"numoutlets" : 0,
					"patching_rect" : [ 294.0, -87.068359375, 108.93310546875, 20.0 ],
					"presentation" : 1,
					"presentation_linecount" : 2,
					"presentation_rect" : [ 21.0, 155.0, 85.0, 33.0 ],
					"text" : "Modulator Freq"
				}

			}
, 			{
				"box" : 				{
					"id" : "obj-103",
					"maxclass" : "newobj",
					"numinlets" : 2,
					"numoutlets" : 2,
					"outlettype" : [ "", "" ],
					"patching_rect" : [ 257.0, 0.0, 56.0, 22.0 ],
					"text" : "zl.lookup"
				}

			}
, 			{
				"box" : 				{
					"id" : "obj-105",
					"maxclass" : "multislider",
					"numinlets" : 1,
					"numoutlets" : 2,
					"outlettype" : [ "", "" ],
					"parameter_enable" : 0,
					"patching_rect" : [ 294.0, -64.0, 73.6181640625, 62.0 ],
					"presentation" : 1,
					"presentation_rect" : [ 116.05999755859375, 117.431640625, 737.05999755859375, 113.431640625 ],
					"setminmax" : [ 0.0, 200.0 ],
					"setstyle" : 1,
					"size" : 16
				}

			}
, 			{
				"box" : 				{
					"id" : "obj-106",
					"maxclass" : "message",
					"numinlets" : 2,
					"numoutlets" : 1,
					"outlettype" : [ "" ],
					"patching_rect" : [ 257.0, 48.0, 73.0, 22.0 ],
					"presentation_linecount" : 2,
					"text" : "modFreq $1"
				}

			}
, 			{
				"box" : 				{
					"format" : 6,
					"id" : "obj-107",
					"maxclass" : "flonum",
					"maximum" : 100.0,
					"minimum" : 0.0,
					"numinlets" : 1,
					"numoutlets" : 2,
					"outlettype" : [ "", "bang" ],
					"parameter_enable" : 1,
					"patching_rect" : [ 396.8330078125, 24.0, 50.0, 22.0 ],
					"saved_attribute_attributes" : 					{
						"valueof" : 						{
							"parameter_type" : 0,
							"parameter_longname" : "number[15]",
							"parameter_initial_enable" : 1,
							"parameter_mmax" : 100.0,
							"parameter_initial" : [ 0.25 ],
							"parameter_shortname" : "number[3]"
						}

					}
,
					"textcolor" : [ 1.0, 0.709803921568627, 0.196078431372549, 1.0 ],
					"varname" : "number[6]"
				}

			}
, 			{
				"box" : 				{
					"id" : "obj-93",
					"maxclass" : "comment",
					"numinlets" : 1,
					"numoutlets" : 0,
					"patching_rect" : [ 564.8330078125, -87.068359375, 99.0, 20.0 ],
					"presentation" : 1,
					"presentation_linecount" : 2,
					"presentation_rect" : [ 21.0, 385.86328125, 85.0, 33.0 ],
					"text" : "Modulation Ratio"
				}

			}
, 			{
				"box" : 				{
					"id" : "obj-94",
					"maxclass" : "newobj",
					"numinlets" : 2,
					"numoutlets" : 2,
					"outlettype" : [ "", "" ],
					"patching_rect" : [ 527.8330078125, 0.0, 56.0, 22.0 ],
					"text" : "zl.lookup"
				}

			}
, 			{
				"box" : 				{
					"id" : "obj-96",
					"maxclass" : "multislider",
					"numinlets" : 1,
					"numoutlets" : 2,
					"outlettype" : [ "", "" ],
					"parameter_enable" : 0,
					"patching_rect" : [ 564.8330078125, -64.0, 73.6181640625, 62.0 ],
					"presentation" : 1,
					"presentation_rect" : [ 116.05999755859375, 348.294921875, 737.05999755859375, 113.431640625 ],
					"setminmax" : [ 0.0, 3.0 ],
					"setstyle" : 1,
					"size" : 16
				}

			}
, 			{
				"box" : 				{
					"id" : "obj-97",
					"maxclass" : "message",
					"numinlets" : 2,
					"numoutlets" : 1,
					"outlettype" : [ "" ],
					"patching_rect" : [ 527.8330078125, 48.0, 77.0, 22.0 ],
					"presentation_linecount" : 2,
					"text" : "modRatio $1"
				}

			}
, 			{
				"box" : 				{
					"id" : "obj-92",
					"maxclass" : "comment",
					"numinlets" : 1,
					"numoutlets" : 0,
					"patching_rect" : [ 694.0, -87.068359375, 88.6181640625, 20.0 ],
					"presentation" : 1,
					"presentation_linecount" : 2,
					"presentation_rect" : [ 21.0, 501.294921875, 85.0, 33.0 ],
					"text" : "Step Attack ms"
				}

			}
, 			{
				"box" : 				{
					"id" : "obj-89",
					"maxclass" : "newobj",
					"numinlets" : 2,
					"numoutlets" : 2,
					"outlettype" : [ "", "" ],
					"patching_rect" : [ 657.0, 0.0, 56.0, 22.0 ],
					"text" : "zl.lookup"
				}

			}
, 			{
				"box" : 				{
					"id" : "obj-90",
					"maxclass" : "number",
					"minimum" : 20,
					"numinlets" : 1,
					"numoutlets" : 2,
					"outlettype" : [ "", "bang" ],
					"parameter_enable" : 1,
					"patching_rect" : [ 657.0, 24.0, 50.0, 22.0 ],
					"presentation" : 1,
					"presentation_rect" : [ 1193.284912109375, 116.568359375, 50.0, 22.0 ],
					"saved_attribute_attributes" : 					{
						"valueof" : 						{
							"parameter_type" : 3,
							"parameter_mmin" : 20.0,
							"parameter_longname" : "number[14]",
							"parameter_initial_enable" : 1,
							"parameter_invisible" : 1,
							"parameter_initial" : [ 500 ],
							"parameter_shortname" : "number[1]"
						}

					}
,
					"textcolor" : [ 1.0, 0.709803921568627, 0.196078431372549, 1.0 ],
					"varname" : "number[1]"
				}

			}
, 			{
				"box" : 				{
					"id" : "obj-91",
					"maxclass" : "multislider",
					"numinlets" : 1,
					"numoutlets" : 2,
					"outlettype" : [ "", "" ],
					"parameter_enable" : 0,
					"patching_rect" : [ 694.0, -64.0, 73.6181640625, 62.0 ],
					"presentation" : 1,
					"presentation_rect" : [ 116.05999755859375, 463.7265625, 737.05999755859375, 113.431640625 ],
					"setminmax" : [ 0.0, 1000.0 ],
					"setstyle" : 1,
					"settype" : 0,
					"size" : 16
				}

			}
, 			{
				"box" : 				{
					"id" : "obj-88",
					"maxclass" : "comment",
					"numinlets" : 1,
					"numoutlets" : 0,
					"patching_rect" : [ 837.0, -87.068359375, 89.6181640625, 20.0 ],
					"presentation" : 1,
					"presentation_linecount" : 2,
					"presentation_rect" : [ 20.99993896484375, 616.7265625, 85.0, 33.0 ],
					"text" : "Step Decay ms"
				}

			}
, 			{
				"box" : 				{
					"id" : "obj-86",
					"maxclass" : "comment",
					"numinlets" : 1,
					"numoutlets" : 0,
					"patching_rect" : [ 155.0, 721.0, 150.0, 20.0 ],
					"presentation" : 1,
					"presentation_rect" : [ 21.0, 74.431640625, 85.0, 20.0 ],
					"text" : "Current Step"
				}

			}
, 			{
				"box" : 				{
					"id" : "obj-71",
					"maxclass" : "newobj",
					"numinlets" : 2,
					"numoutlets" : 2,
					"outlettype" : [ "", "" ],
					"patching_rect" : [ 800.0, 0.0, 56.0, 22.0 ],
					"text" : "zl.lookup"
				}

			}
, 			{
				"box" : 				{
					"id" : "obj-51",
					"maxclass" : "preset",
					"numinlets" : 1,
					"numoutlets" : 4,
					"outlettype" : [ "preset", "int", "preset", "int" ],
					"patching_rect" : [ 1255.93310546875, 227.0, 100.0, 40.0 ],
					"pattrstorage" : "salty"
				}

			}
, 			{
				"box" : 				{
					"fontname" : "Arial",
					"fontsize" : 13.0,
					"id" : "obj-52",
					"maxclass" : "message",
					"numinlets" : 2,
					"numoutlets" : 1,
					"outlettype" : [ "" ],
					"patching_rect" : [ 1255.93310546875, 200.0, 108.0, 23.0 ],
					"text" : "pattrstorage salty"
				}

			}
, 			{
				"box" : 				{
					"id" : "obj-53",
					"maxclass" : "newobj",
					"numinlets" : 1,
					"numoutlets" : 4,
					"outlettype" : [ "", "", "", "" ],
					"patching_rect" : [ 1255.93310546875, 142.66668701171875, 56.0, 22.0 ],
					"restore" : 					{
						"number[1]" : [ 20 ],
						"number[2]" : [ 675 ],
						"number[3]" : [ 0.387096762657166 ],
						"number[6]" : [ 64.516128540039062 ]
					}
,
					"text" : "autopattr",
					"varname" : "u832002054"
				}

			}
, 			{
				"box" : 				{
					"id" : "obj-54",
					"maxclass" : "newobj",
					"numinlets" : 1,
					"numoutlets" : 1,
					"outlettype" : [ "" ],
					"patching_rect" : [ 1255.93310546875, 172.0, 101.0, 22.0 ],
					"saved_object_attributes" : 					{
						"client_rect" : [ 100, 100, 500, 600 ],
						"parameter_enable" : 0,
						"parameter_mappable" : 0,
						"storage_rect" : [ 200, 200, 800, 500 ]
					}
,
					"text" : "pattrstorage salty",
					"varname" : "salty"
				}

			}
, 			{
				"box" : 				{
					"id" : "obj-23",
					"maxclass" : "message",
					"numinlets" : 2,
					"numoutlets" : 1,
					"outlettype" : [ "" ],
					"patching_rect" : [ 657.0, 48.0, 57.0, 22.0 ],
					"text" : "attack $1"
				}

			}
, 			{
				"box" : 				{
					"id" : "obj-44",
					"maxclass" : "message",
					"numinlets" : 2,
					"numoutlets" : 1,
					"outlettype" : [ "" ],
					"patching_rect" : [ 800.0, 48.0, 57.0, 22.0 ],
					"text" : "decay $1"
				}

			}
, 			{
				"box" : 				{
					"format" : 6,
					"id" : "obj-49",
					"maxclass" : "flonum",
					"maximum" : 100.0,
					"minimum" : 0.0,
					"numinlets" : 1,
					"numoutlets" : 2,
					"outlettype" : [ "", "bang" ],
					"parameter_enable" : 1,
					"patching_rect" : [ 527.8330078125, 24.0, 50.0, 22.0 ],
					"saved_attribute_attributes" : 					{
						"valueof" : 						{
							"parameter_type" : 0,
							"parameter_longname" : "number[9]",
							"parameter_initial_enable" : 1,
							"parameter_mmax" : 100.0,
							"parameter_initial" : [ 0.25 ],
							"parameter_shortname" : "number[3]"
						}

					}
,
					"textcolor" : [ 1.0, 0.709803921568627, 0.196078431372549, 1.0 ],
					"varname" : "number[3]"
				}

			}
, 			{
				"box" : 				{
					"id" : "obj-73",
					"maxclass" : "number",
					"minimum" : 20,
					"numinlets" : 1,
					"numoutlets" : 2,
					"outlettype" : [ "", "bang" ],
					"parameter_enable" : 1,
					"patching_rect" : [ 800.0, 24.0, 50.0, 22.0 ],
					"presentation" : 1,
					"presentation_rect" : [ 1178.284912109375, 101.568359375, 50.0, 22.0 ],
					"saved_attribute_attributes" : 					{
						"valueof" : 						{
							"parameter_type" : 3,
							"parameter_mmin" : 20.0,
							"parameter_longname" : "number[10]",
							"parameter_initial_enable" : 1,
							"parameter_invisible" : 1,
							"parameter_initial" : [ 500 ],
							"parameter_shortname" : "number[1]"
						}

					}
,
					"textcolor" : [ 1.0, 0.709803921568627, 0.196078431372549, 1.0 ],
					"varname" : "number[2]"
				}

			}
, 			{
				"box" : 				{
					"id" : "obj-22",
					"maxclass" : "multislider",
					"numinlets" : 1,
					"numoutlets" : 2,
					"outlettype" : [ "", "" ],
					"parameter_enable" : 0,
					"patching_rect" : [ 837.0, -64.0, 73.6181640625, 62.0 ],
					"presentation" : 1,
					"presentation_rect" : [ 116.05999755859375, 579.158203125, 737.05999755859375, 113.431640625 ],
					"setminmax" : [ 0.0, 1000.0 ],
					"setstyle" : 1,
					"settype" : 0,
					"size" : 16
				}

			}
, 			{
				"box" : 				{
					"comment" : "",
					"id" : "obj-18",
					"index" : 2,
					"maxclass" : "outlet",
					"numinlets" : 1,
					"numoutlets" : 0,
					"patching_rect" : [ 481.0, 420.931640625, 30.0, 30.0 ]
				}

			}
, 			{
				"box" : 				{
					"id" : "obj-17",
					"maxclass" : "comment",
					"numinlets" : 1,
					"numoutlets" : 0,
					"patching_rect" : [ 719.0, 210.931640625, 150.0, 20.0 ],
					"presentation" : 1,
					"presentation_rect" : [ 283.0, 16.0, 150.0, 20.0 ],
					"text" : "# of active Euclid Steps"
				}

			}
, 			{
				"box" : 				{
					"id" : "obj-13",
					"maxclass" : "newobj",
					"numinlets" : 1,
					"numoutlets" : 1,
					"outlettype" : [ "" ],
					"patching_rect" : [ 667.0, 183.0, 77.0, 22.0 ],
					"text" : "loadmess 16"
				}

			}
, 			{
				"box" : 				{
					"id" : "obj-7",
					"maxclass" : "number",
					"numinlets" : 1,
					"numoutlets" : 2,
					"outlettype" : [ "", "bang" ],
					"parameter_enable" : 0,
					"patching_rect" : [ 667.0, 210.931640625, 50.0, 22.0 ],
					"presentation" : 1,
					"presentation_rect" : [ 231.0, 16.0, 50.0, 22.0 ]
				}

			}
, 			{
				"box" : 				{
					"id" : "obj-60",
					"maxclass" : "message",
					"numinlets" : 2,
					"numoutlets" : 1,
					"outlettype" : [ "" ],
					"patching_rect" : [ 667.0, 235.0, 73.0, 22.0 ],
					"text" : "euclid 16 $1"
				}

			}
, 			{
				"box" : 				{
					"id" : "obj-58",
					"maxclass" : "newobj",
					"numinlets" : 1,
					"numoutlets" : 1,
					"outlettype" : [ "" ],
					"patching_rect" : [ 667.0, 262.0, 64.0, 22.0 ],
					"saved_object_attributes" : 					{
						"filename" : "euclid.js",
						"parameter_enable" : 0
					}
,
					"text" : "js euclid.js"
				}

			}
, 			{
				"box" : 				{
					"id" : "obj-55",
					"maxclass" : "newobj",
					"numinlets" : 0,
					"numoutlets" : 0,
					"patcher" : 					{
						"fileversion" : 1,
						"appversion" : 						{
							"major" : 8,
							"minor" : 0,
							"revision" : 0,
							"architecture" : "x64",
							"modernui" : 1
						}
,
						"classnamespace" : "box",
						"rect" : [ 84.0, 129.0, 640.0, 480.0 ],
						"bglocked" : 0,
						"openinpresentation" : 0,
						"default_fontsize" : 12.0,
						"default_fontface" : 0,
						"default_fontname" : "Arial",
						"gridonopen" : 1,
						"gridsize" : [ 15.0, 15.0 ],
						"gridsnaponopen" : 1,
						"objectsnaponopen" : 1,
						"statusbarvisible" : 2,
						"toolbarvisible" : 1,
						"lefttoolbarpinned" : 0,
						"toptoolbarpinned" : 0,
						"righttoolbarpinned" : 0,
						"bottomtoolbarpinned" : 0,
						"toolbars_unpinned_last_save" : 0,
						"tallnewobj" : 0,
						"boxanimatetime" : 200,
						"enablehscroll" : 1,
						"enablevscroll" : 1,
						"devicewidth" : 0.0,
						"description" : "",
						"digest" : "",
						"tags" : "",
						"style" : "",
						"subpatcher_template" : "",
						"boxes" : [ 							{
								"box" : 								{
									"fontname" : "Arial Italic",
									"fontsize" : 12.0,
									"id" : "obj-31",
									"maxclass" : "comment",
									"numinlets" : 1,
									"numoutlets" : 0,
									"patching_rect" : [ 13.569671630859375, 137.0, 540.0, 20.0 ],
									"text" : "Trigger a ramp for the various wavetable voices"
								}

							}
, 							{
								"box" : 								{
									"fontname" : "Arial Bold Italic",
									"fontsize" : 12.0,
									"id" : "obj-25",
									"maxclass" : "comment",
									"numinlets" : 1,
									"numoutlets" : 0,
									"patching_rect" : [ 241.0, 111.5, 297.32159423828125, 20.0 ],
									"text" : "Polyphonic FM wavetable synth using MC"
								}

							}
, 							{
								"box" : 								{
									"fontname" : "Arial Bold Italic",
									"fontsize" : 18.0,
									"id" : "obj-15",
									"maxclass" : "comment",
									"numinlets" : 1,
									"numoutlets" : 0,
									"patching_rect" : [ 13.569671630859375, 108.0, 225.430328369140625, 27.0 ],
									"text" : "MC FM Wavetable Poly~",
									"textcolor" : [ 0.301961004734039, 0.337255001068115, 0.403921991586685, 1.0 ]
								}

							}
, 							{
								"box" : 								{
									"id" : "obj-10",
									"linecount" : 5,
									"maxclass" : "comment",
									"numinlets" : 1,
									"numoutlets" : 0,
									"patching_rect" : [ 223.21514892578125, 4.0, 150.0, 74.0 ],
									"text" : "the beginnings of this patch came from the max package MC Movement Studies by Cycling 74 & Dillon Bastan"
								}

							}
 ],
						"lines" : [  ],
						"styles" : [ 							{
								"name" : "AudioStatus_Menu",
								"default" : 								{
									"bgfillcolor" : 									{
										"type" : "color",
										"color" : [ 0.294118, 0.313726, 0.337255, 1 ],
										"color1" : [ 0.454902, 0.462745, 0.482353, 0.0 ],
										"color2" : [ 0.290196, 0.309804, 0.301961, 1.0 ],
										"angle" : 270.0,
										"proportion" : 0.39,
										"autogradient" : 0
									}

								}
,
								"parentstyle" : "",
								"multi" : 0
							}
, 							{
								"name" : "ksliderWhite",
								"default" : 								{
									"color" : [ 1, 1, 1, 1 ]
								}
,
								"parentstyle" : "",
								"multi" : 0
							}
, 							{
								"name" : "newobjBlue-1",
								"default" : 								{
									"accentcolor" : [ 0.317647, 0.654902, 0.976471, 1 ]
								}
,
								"parentstyle" : "",
								"multi" : 0
							}
, 							{
								"name" : "newobjGreen-1",
								"default" : 								{
									"accentcolor" : [ 0, 0.533333, 0.168627, 1 ]
								}
,
								"parentstyle" : "",
								"multi" : 0
							}
, 							{
								"name" : "numberGold-1",
								"default" : 								{
									"accentcolor" : [ 0.764706, 0.592157, 0.101961, 1 ]
								}
,
								"parentstyle" : "",
								"multi" : 0
							}
 ]
					}
,
					"patching_rect" : [ 20.05999755859375, 8.0, 48.0, 22.0 ],
					"saved_object_attributes" : 					{
						"description" : "",
						"digest" : "",
						"globalpatchername" : "",
						"tags" : ""
					}
,
					"text" : "p credit"
				}

			}
, 			{
				"box" : 				{
					"cellheight" : 40,
					"cellwidth" : 40,
					"columns" : 4,
					"id" : "obj-32",
					"maxclass" : "gridmeter~",
					"numinlets" : 1,
					"numoutlets" : 0,
					"patching_rect" : [ 895.652587890625, 705.431640625, 44.0, 44.0 ],
					"presentation" : 1,
					"presentation_rect" : [ 392.05999755859375, 62.431640625, 44.0, 44.0 ]
				}

			}
, 			{
				"box" : 				{
					"cellheight" : 40,
					"cellwidth" : 40,
					"columns" : 4,
					"id" : "obj-33",
					"maxclass" : "gridmeter~",
					"numinlets" : 1,
					"numoutlets" : 0,
					"patching_rect" : [ 823.05999755859375, 705.431640625, 44.0, 44.0 ],
					"presentation" : 1,
					"presentation_rect" : [ 438.05999755859375, 62.431640625, 44.0, 44.0 ]
				}

			}
, 			{
				"box" : 				{
					"cellheight" : 40,
					"cellwidth" : 40,
					"columns" : 4,
					"id" : "obj-34",
					"maxclass" : "gridmeter~",
					"numinlets" : 1,
					"numoutlets" : 0,
					"patching_rect" : [ 1049.443603515625, 705.431640625, 44.0, 44.0 ],
					"presentation" : 1,
					"presentation_rect" : [ 300.05999755859375, 62.431640625, 44.0, 44.0 ]
				}

			}
, 			{
				"box" : 				{
					"cellheight" : 40,
					"cellwidth" : 40,
					"columns" : 4,
					"id" : "obj-35",
					"maxclass" : "gridmeter~",
					"numinlets" : 1,
					"numoutlets" : 0,
					"patching_rect" : [ 976.85101318359375, 705.431640625, 44.0, 44.0 ],
					"presentation" : 1,
					"presentation_rect" : [ 346.05999755859375, 62.431640625, 44.0, 44.0 ]
				}

			}
, 			{
				"box" : 				{
					"cellheight" : 40,
					"cellwidth" : 40,
					"columns" : 4,
					"id" : "obj-36",
					"maxclass" : "gridmeter~",
					"numinlets" : 1,
					"numoutlets" : 0,
					"patching_rect" : [ 1203.234619140625, 705.431640625, 44.0, 44.0 ],
					"presentation" : 1,
					"presentation_rect" : [ 208.05999755859375, 62.431640625, 44.0, 44.0 ]
				}

			}
, 			{
				"box" : 				{
					"cellheight" : 40,
					"cellwidth" : 40,
					"columns" : 4,
					"id" : "obj-40",
					"maxclass" : "gridmeter~",
					"numinlets" : 1,
					"numoutlets" : 0,
					"patching_rect" : [ 1130.64208984375, 705.431640625, 44.0, 44.0 ],
					"presentation" : 1,
					"presentation_rect" : [ 254.05999755859375, 62.431640625, 44.0, 44.0 ]
				}

			}
, 			{
				"box" : 				{
					"cellheight" : 40,
					"cellwidth" : 40,
					"columns" : 4,
					"id" : "obj-41",
					"maxclass" : "gridmeter~",
					"numinlets" : 1,
					"numoutlets" : 0,
					"patching_rect" : [ 1357.025634765625, 705.431640625, 44.0, 44.0 ],
					"presentation" : 1,
					"presentation_rect" : [ 116.05999755859375, 62.431640625, 44.0, 44.0 ]
				}

			}
, 			{
				"box" : 				{
					"cellheight" : 40,
					"cellwidth" : 40,
					"columns" : 4,
					"id" : "obj-43",
					"maxclass" : "gridmeter~",
					"numinlets" : 1,
					"numoutlets" : 0,
					"patching_rect" : [ 1284.43310546875, 705.431640625, 44.0, 44.0 ],
					"presentation" : 1,
					"presentation_rect" : [ 162.05999755859375, 62.431640625, 44.0, 44.0 ]
				}

			}
, 			{
				"box" : 				{
					"id" : "obj-5",
					"maxclass" : "textbutton",
					"mode" : 1,
					"numinlets" : 1,
					"numoutlets" : 3,
					"outlettype" : [ "", "", "int" ],
					"parameter_enable" : 0,
					"patching_rect" : [ 560.0, 130.568359375, 100.0, 20.0 ],
					"presentation" : 1,
					"presentation_rect" : [ 116.05999755859375, 16.0, 100.0, 20.0 ],
					"text" : "Voice Stealing",
					"texton" : "Voice Stealing"
				}

			}
, 			{
				"box" : 				{
					"id" : "obj-72",
					"maxclass" : "message",
					"numinlets" : 2,
					"numoutlets" : 1,
					"outlettype" : [ "" ],
					"patching_rect" : [ 560.0, 159.0, 54.0, 22.0 ],
					"text" : "steal $1"
				}

			}
, 			{
				"box" : 				{
					"cellheight" : 40,
					"cellwidth" : 40,
					"columns" : 4,
					"id" : "obj-69",
					"maxclass" : "gridmeter~",
					"numinlets" : 1,
					"numoutlets" : 0,
					"patching_rect" : [ 309.652587890625, 705.431640625, 44.0, 44.0 ],
					"presentation" : 1,
					"presentation_rect" : [ 763.05999755859375, 62.431640625, 44.0, 44.0 ]
				}

			}
, 			{
				"box" : 				{
					"cellheight" : 40,
					"cellwidth" : 40,
					"columns" : 4,
					"id" : "obj-70",
					"maxclass" : "gridmeter~",
					"numinlets" : 1,
					"numoutlets" : 0,
					"patching_rect" : [ 237.05999755859375, 705.431640625, 44.0, 44.0 ],
					"presentation" : 1,
					"presentation_rect" : [ 809.05999755859375, 62.431640625, 44.0, 44.0 ]
				}

			}
, 			{
				"box" : 				{
					"cellheight" : 40,
					"cellwidth" : 40,
					"columns" : 4,
					"id" : "obj-67",
					"maxclass" : "gridmeter~",
					"numinlets" : 1,
					"numoutlets" : 0,
					"patching_rect" : [ 463.443603515625, 705.431640625, 44.0, 44.0 ],
					"presentation" : 1,
					"presentation_rect" : [ 671.05999755859375, 62.431640625, 44.0, 44.0 ]
				}

			}
, 			{
				"box" : 				{
					"cellheight" : 40,
					"cellwidth" : 40,
					"columns" : 4,
					"id" : "obj-68",
					"maxclass" : "gridmeter~",
					"numinlets" : 1,
					"numoutlets" : 0,
					"patching_rect" : [ 390.85101318359375, 705.431640625, 44.0, 44.0 ],
					"presentation" : 1,
					"presentation_rect" : [ 717.05999755859375, 62.431640625, 44.0, 44.0 ]
				}

			}
, 			{
				"box" : 				{
					"cellheight" : 40,
					"cellwidth" : 40,
					"columns" : 4,
					"id" : "obj-65",
					"maxclass" : "gridmeter~",
					"numinlets" : 1,
					"numoutlets" : 0,
					"patching_rect" : [ 617.234619140625, 705.431640625, 44.0, 44.0 ],
					"presentation" : 1,
					"presentation_rect" : [ 579.05999755859375, 62.431640625, 44.0, 44.0 ]
				}

			}
, 			{
				"box" : 				{
					"cellheight" : 40,
					"cellwidth" : 40,
					"columns" : 4,
					"id" : "obj-66",
					"maxclass" : "gridmeter~",
					"numinlets" : 1,
					"numoutlets" : 0,
					"patching_rect" : [ 544.64202880859375, 705.431640625, 44.0, 44.0 ],
					"presentation" : 1,
					"presentation_rect" : [ 625.05999755859375, 62.431640625, 44.0, 44.0 ]
				}

			}
, 			{
				"box" : 				{
					"cellheight" : 40,
					"cellwidth" : 40,
					"columns" : 4,
					"id" : "obj-63",
					"maxclass" : "gridmeter~",
					"numinlets" : 1,
					"numoutlets" : 0,
					"patching_rect" : [ 771.025634765625, 705.431640625, 44.0, 44.0 ],
					"presentation" : 1,
					"presentation_rect" : [ 487.05999755859375, 62.431640625, 44.0, 44.0 ]
				}

			}
, 			{
				"box" : 				{
					"cellheight" : 40,
					"cellwidth" : 40,
					"columns" : 4,
					"id" : "obj-62",
					"maxclass" : "gridmeter~",
					"numinlets" : 1,
					"numoutlets" : 0,
					"patching_rect" : [ 698.43310546875, 705.431640625, 44.0, 44.0 ],
					"presentation" : 1,
					"presentation_rect" : [ 533.05999755859375, 62.431640625, 44.0, 44.0 ]
				}

			}
, 			{
				"box" : 				{
					"id" : "obj-2",
					"maxclass" : "newobj",
					"numinlets" : 1,
					"numoutlets" : 16,
					"outlettype" : [ "signal", "signal", "signal", "signal", "signal", "signal", "signal", "signal", "signal", "signal", "signal", "signal", "signal", "signal", "signal", "signal" ],
					"patching_rect" : [ 237.05999755859375, 640.0, 176.5, 22.0 ],
					"text" : "mc.unpack~ 16"
				}

			}
, 			{
				"box" : 				{
					"id" : "obj-29",
					"maxclass" : "newobj",
					"numinlets" : 1,
					"numoutlets" : 2,
					"outlettype" : [ "int", "int" ],
					"patching_rect" : [ 390.0, 420.931640625, 87.0, 22.0 ],
					"text" : "t i i"
				}

			}
, 			{
				"box" : 				{
					"id" : "obj-28",
					"maxclass" : "newobj",
					"numinlets" : 1,
					"numoutlets" : 1,
					"outlettype" : [ "" ],
					"patching_rect" : [ 83.333335876464844, 361.0, 32.0, 22.0 ],
					"text" : "mtof"
				}

			}
, 			{
				"box" : 				{
					"color" : [ 0.113725490196078, 0.580392156862745, 0.737254901960784, 1.0 ],
					"id" : "obj-27",
					"maxclass" : "newobj",
					"numinlets" : 4,
					"numoutlets" : 4,
					"outlettype" : [ "multichannelsignal", "", "int", "int" ],
					"patching_rect" : [ 275.0, 310.931640625, 134.0, 22.0 ],
					"text" : "multiRamp~ 16 wavefm",
					"textcolor" : [ 0.968627452850342, 0.968627452850342, 0.968627452850342, 1.0 ]
				}

			}
, 			{
				"box" : 				{
					"fontface" : 1,
					"fontname" : "Arial Bold",
					"fontsize" : 10.0,
					"id" : "obj-19",
					"linecount" : 2,
					"maxclass" : "comment",
					"numinlets" : 1,
					"numoutlets" : 0,
					"patching_rect" : [ 635.93310546875, 640.0, 87.0, 29.0 ],
					"text" : "MC Ramp/Busymap",
					"textcolor" : [ 0.129411771893501, 0.129411771893501, 0.129411771893501, 1.0 ],
					"textjustification" : 1
				}

			}
, 			{
				"box" : 				{
					"comment" : "",
					"id" : "obj-20",
					"index" : 3,
					"maxclass" : "outlet",
					"numinlets" : 1,
					"numoutlets" : 0,
					"patching_rect" : [ 657.43310546875, 608.0, 30.0, 30.0 ]
				}

			}
, 			{
				"box" : 				{
					"id" : "obj-16",
					"maxclass" : "comment",
					"numinlets" : 1,
					"numoutlets" : 0,
					"patching_rect" : [ 244.652587890625, 485.931640625, 109.0, 20.0 ],
					"text" : "< Modulator Freq"
				}

			}
, 			{
				"box" : 				{
					"fontface" : 1,
					"fontname" : "Arial Bold",
					"fontsize" : 10.0,
					"id" : "obj-11",
					"linecount" : 2,
					"maxclass" : "comment",
					"numinlets" : 1,
					"numoutlets" : 0,
					"patching_rect" : [ 17.0, 766.42779541015625, 66.0, 29.0 ],
					"text" : "MC Signal Out (LR)",
					"textcolor" : [ 0.129411771893501, 0.129411771893501, 0.129411771893501, 1.0 ],
					"textjustification" : 1
				}

			}
, 			{
				"box" : 				{
					"fontface" : 1,
					"fontname" : "Arial Bold",
					"fontsize" : 10.0,
					"id" : "obj-4",
					"maxclass" : "comment",
					"numinlets" : 1,
					"numoutlets" : 0,
					"patching_rect" : [ 257.0, 152.0, 66.0, 18.0 ],
					"text" : "Midinote",
					"textcolor" : [ 0.129411771893501, 0.129411771893501, 0.129411771893501, 1.0 ],
					"textjustification" : 1
				}

			}
, 			{
				"box" : 				{
					"fontface" : 1,
					"fontname" : "Arial Bold",
					"fontsize" : 10.0,
					"id" : "obj-24",
					"linecount" : 2,
					"maxclass" : "comment",
					"numinlets" : 1,
					"numoutlets" : 0,
					"patching_rect" : [ 17.0, 73.0, 66.0, 29.0 ],
					"text" : "mc.wave~ Msgs",
					"textcolor" : [ 0.129411771893501, 0.129411771893501, 0.129411771893501, 1.0 ],
					"textjustification" : 1
				}

			}
, 			{
				"box" : 				{
					"id" : "obj-1",
					"maxclass" : "newobj",
					"numinlets" : 5,
					"numoutlets" : 5,
					"outlettype" : [ "", "", "", "", "" ],
					"patching_rect" : [ 131.666671752929688, 128.0, 382.44439697265625, 22.0 ],
					"text" : "route modFreq modRatio attack decay"
				}

			}
, 			{
				"box" : 				{
					"id" : "obj-3",
					"maxclass" : "newobj",
					"numinlets" : 1,
					"numoutlets" : 2,
					"outlettype" : [ "float", "float" ],
					"patching_rect" : [ 83.333335876464844, 388.931640625, 115.5, 22.0 ],
					"text" : "t f f"
				}

			}
, 			{
				"box" : 				{
					"color" : [ 0.113725490196078, 0.580392156862745, 0.737254901960784, 1.0 ],
					"fontname" : "Arial",
					"id" : "obj-64",
					"maxclass" : "newobj",
					"numinlets" : 4,
					"numoutlets" : 2,
					"outlettype" : [ "multichannelsignal", "multichannelsignal" ],
					"patching_rect" : [ 35.0, 545.431640625, 164.0, 22.0 ],
					"text" : "saltyWavetables~ 16 wavefm"
				}

			}
, 			{
				"box" : 				{
					"id" : "obj-37",
					"maxclass" : "newobj",
					"numinlets" : 2,
					"numoutlets" : 1,
					"outlettype" : [ "" ],
					"patching_rect" : [ 179.833343505859375, 420.931640625, 95.0, 22.0 ],
					"text" : "pak f f"
				}

			}
, 			{
				"box" : 				{
					"id" : "obj-38",
					"maxclass" : "newobj",
					"numinlets" : 2,
					"numoutlets" : 1,
					"outlettype" : [ "float" ],
					"patching_rect" : [ 179.833343505859375, 444.931640625, 29.5, 22.0 ],
					"text" : "* 0."
				}

			}
, 			{
				"box" : 				{
					"id" : "obj-42",
					"maxclass" : "newobj",
					"numinlets" : 2,
					"numoutlets" : 2,
					"outlettype" : [ "setvalue", "int" ],
					"patching_rect" : [ 180.0, 485.931640625, 59.0, 22.0 ],
					"text" : "mc.target"
				}

			}
, 			{
				"box" : 				{
					"id" : "obj-39",
					"maxclass" : "newobj",
					"numinlets" : 2,
					"numoutlets" : 1,
					"outlettype" : [ "multichannelsignal" ],
					"patching_rect" : [ 35.0, 582.431640625, 259.0, 22.0 ],
					"text" : "mc.*~ @bzname wavefm"
				}

			}
, 			{
				"box" : 				{
					"id" : "obj-8",
					"maxclass" : "newobj",
					"numinlets" : 2,
					"numoutlets" : 2,
					"outlettype" : [ "setvalue", "int" ],
					"patching_rect" : [ 83.333335876464844, 485.931640625, 65.5, 22.0 ],
					"text" : "mc.target"
				}

			}
, 			{
				"box" : 				{
					"comment" : "",
					"id" : "obj-10",
					"index" : 1,
					"maxclass" : "inlet",
					"numinlets" : 0,
					"numoutlets" : 1,
					"outlettype" : [ "" ],
					"patching_rect" : [ 35.0, 104.0, 30.0, 30.0 ]
				}

			}
, 			{
				"box" : 				{
					"comment" : "",
					"id" : "obj-12",
					"index" : 2,
					"maxclass" : "inlet",
					"numinlets" : 0,
					"numoutlets" : 1,
					"outlettype" : [ "" ],
					"patching_rect" : [ 275.0, 172.0, 30.0, 30.0 ]
				}

			}
, 			{
				"box" : 				{
					"comment" : "",
					"id" : "obj-21",
					"index" : 1,
					"maxclass" : "outlet",
					"numinlets" : 1,
					"numoutlets" : 0,
					"patching_rect" : [ 35.0, 734.42779541015625, 30.0, 30.0 ]
				}

			}
 ],
		"lines" : [ 			{
				"patchline" : 				{
					"destination" : [ "obj-27", 2 ],
					"midpoints" : [ 413.749969482421875, 282.0, 361.166666666666686, 282.0 ],
					"source" : [ "obj-1", 3 ]
				}

			}
, 			{
				"patchline" : 				{
					"destination" : [ "obj-27", 1 ],
					"source" : [ "obj-1", 2 ]
				}

			}
, 			{
				"patchline" : 				{
					"destination" : [ "obj-37", 1 ],
					"midpoints" : [ 232.02777099609375, 327.0, 265.333343505859375, 327.0 ],
					"source" : [ "obj-1", 1 ]
				}

			}
, 			{
				"patchline" : 				{
					"destination" : [ "obj-64", 2 ],
					"midpoints" : [ 141.166671752929688, 334.0, 69.0, 334.0, 69.0, 531.0, 141.166666666666686, 531.0 ],
					"source" : [ "obj-1", 0 ]
				}

			}
, 			{
				"patchline" : 				{
					"destination" : [ "obj-64", 0 ],
					"source" : [ "obj-10", 0 ]
				}

			}
, 			{
				"patchline" : 				{
					"destination" : [ "obj-99", 1 ],
					"source" : [ "obj-100", 0 ]
				}

			}
, 			{
				"patchline" : 				{
					"destination" : [ "obj-1", 0 ],
					"midpoints" : [ 406.3330078125, 98.5, 141.166671752929688, 98.5 ],
					"source" : [ "obj-101", 0 ]
				}

			}
, 			{
				"patchline" : 				{
					"destination" : [ "obj-109", 0 ],
					"source" : [ "obj-103", 0 ]
				}

			}
, 			{
				"patchline" : 				{
					"destination" : [ "obj-103", 1 ],
					"source" : [ "obj-105", 0 ]
				}

			}
, 			{
				"patchline" : 				{
					"destination" : [ "obj-1", 0 ],
					"midpoints" : [ 266.5, 98.5, 141.166671752929688, 98.5 ],
					"source" : [ "obj-106", 0 ]
				}

			}
, 			{
				"patchline" : 				{
					"destination" : [ "obj-101", 0 ],
					"source" : [ "obj-107", 0 ]
				}

			}
, 			{
				"patchline" : 				{
					"destination" : [ "obj-106", 0 ],
					"source" : [ "obj-109", 0 ]
				}

			}
, 			{
				"patchline" : 				{
					"destination" : [ "obj-103", 0 ],
					"midpoints" : [ 399.5, 342.931640625, 934.0, 342.931640625, 934.0, -11.0, 266.5, -11.0 ],
					"order" : 4,
					"source" : [ "obj-110", 0 ]
				}

			}
, 			{
				"patchline" : 				{
					"destination" : [ "obj-71", 0 ],
					"midpoints" : [ 399.5, 342.931640625, 934.5, 342.931640625, 934.5, -11.0, 809.5, -11.0 ],
					"order" : 0,
					"source" : [ "obj-110", 0 ]
				}

			}
, 			{
				"patchline" : 				{
					"destination" : [ "obj-89", 0 ],
					"midpoints" : [ 399.5, 342.931640625, 934.0, 342.931640625, 934.0, -11.0, 666.5, -11.0 ],
					"order" : 1,
					"source" : [ "obj-110", 0 ]
				}

			}
, 			{
				"patchline" : 				{
					"destination" : [ "obj-94", 0 ],
					"midpoints" : [ 399.5, 342.931640625, 935.41650390625, 342.931640625, 935.41650390625, -11.0, 537.3330078125, -11.0 ],
					"order" : 2,
					"source" : [ "obj-110", 0 ]
				}

			}
, 			{
				"patchline" : 				{
					"destination" : [ "obj-99", 0 ],
					"midpoints" : [ 399.5, 342.931640625, 934.91650390625, 342.931640625, 934.91650390625, -11.0, 406.3330078125, -11.0 ],
					"order" : 3,
					"source" : [ "obj-110", 0 ]
				}

			}
, 			{
				"patchline" : 				{
					"destination" : [ "obj-27", 0 ],
					"source" : [ "obj-12", 0 ]
				}

			}
, 			{
				"patchline" : 				{
					"destination" : [ "obj-7", 0 ],
					"source" : [ "obj-13", 0 ]
				}

			}
, 			{
				"patchline" : 				{
					"destination" : [ "obj-32", 0 ],
					"midpoints" : [ 309.55999755859375, 695.7158203125, 905.152587890625, 695.7158203125 ],
					"source" : [ "obj-2", 6 ]
				}

			}
, 			{
				"patchline" : 				{
					"destination" : [ "obj-33", 0 ],
					"midpoints" : [ 320.05999755859375, 695.7158203125, 832.55999755859375, 695.7158203125 ],
					"source" : [ "obj-2", 7 ]
				}

			}
, 			{
				"patchline" : 				{
					"destination" : [ "obj-34", 0 ],
					"midpoints" : [ 288.55999755859375, 695.7158203125, 1058.943603515625, 695.7158203125 ],
					"source" : [ "obj-2", 4 ]
				}

			}
, 			{
				"patchline" : 				{
					"destination" : [ "obj-35", 0 ],
					"midpoints" : [ 299.05999755859375, 695.7158203125, 986.35101318359375, 695.7158203125 ],
					"source" : [ "obj-2", 5 ]
				}

			}
, 			{
				"patchline" : 				{
					"destination" : [ "obj-36", 0 ],
					"midpoints" : [ 267.55999755859375, 695.7158203125, 1212.734619140625, 695.7158203125 ],
					"source" : [ "obj-2", 2 ]
				}

			}
, 			{
				"patchline" : 				{
					"destination" : [ "obj-40", 0 ],
					"midpoints" : [ 278.05999755859375, 695.7158203125, 1140.14208984375, 695.7158203125 ],
					"source" : [ "obj-2", 3 ]
				}

			}
, 			{
				"patchline" : 				{
					"destination" : [ "obj-41", 0 ],
					"midpoints" : [ 246.55999755859375, 695.7158203125, 1366.525634765625, 695.7158203125 ],
					"source" : [ "obj-2", 0 ]
				}

			}
, 			{
				"patchline" : 				{
					"destination" : [ "obj-43", 0 ],
					"midpoints" : [ 257.05999755859375, 695.7158203125, 1293.93310546875, 695.7158203125 ],
					"source" : [ "obj-2", 1 ]
				}

			}
, 			{
				"patchline" : 				{
					"destination" : [ "obj-62", 0 ],
					"midpoints" : [ 341.05999755859375, 695.7158203125, 707.93310546875, 695.7158203125 ],
					"source" : [ "obj-2", 9 ]
				}

			}
, 			{
				"patchline" : 				{
					"destination" : [ "obj-63", 0 ],
					"midpoints" : [ 330.55999755859375, 695.7158203125, 780.525634765625, 695.7158203125 ],
					"source" : [ "obj-2", 8 ]
				}

			}
, 			{
				"patchline" : 				{
					"destination" : [ "obj-65", 0 ],
					"midpoints" : [ 351.55999755859375, 695.7158203125, 626.734619140625, 695.7158203125 ],
					"source" : [ "obj-2", 10 ]
				}

			}
, 			{
				"patchline" : 				{
					"destination" : [ "obj-66", 0 ],
					"midpoints" : [ 362.05999755859375, 695.7158203125, 554.14202880859375, 695.7158203125 ],
					"source" : [ "obj-2", 11 ]
				}

			}
, 			{
				"patchline" : 				{
					"destination" : [ "obj-67", 0 ],
					"midpoints" : [ 372.55999755859375, 695.7158203125, 472.943603515625, 695.7158203125 ],
					"source" : [ "obj-2", 12 ]
				}

			}
, 			{
				"patchline" : 				{
					"destination" : [ "obj-68", 0 ],
					"midpoints" : [ 383.05999755859375, 695.7158203125, 400.35101318359375, 695.7158203125 ],
					"source" : [ "obj-2", 13 ]
				}

			}
, 			{
				"patchline" : 				{
					"destination" : [ "obj-69", 0 ],
					"midpoints" : [ 393.55999755859375, 695.7158203125, 319.152587890625, 695.7158203125 ],
					"source" : [ "obj-2", 14 ]
				}

			}
, 			{
				"patchline" : 				{
					"destination" : [ "obj-70", 0 ],
					"midpoints" : [ 404.05999755859375, 695.7158203125, 246.55999755859375, 695.7158203125 ],
					"source" : [ "obj-2", 15 ]
				}

			}
, 			{
				"patchline" : 				{
					"destination" : [ "obj-71", 1 ],
					"source" : [ "obj-22", 0 ]
				}

			}
, 			{
				"patchline" : 				{
					"destination" : [ "obj-1", 0 ],
					"midpoints" : [ 666.5, 98.5, 141.166671752929688, 98.5 ],
					"source" : [ "obj-23", 0 ]
				}

			}
, 			{
				"patchline" : 				{
					"destination" : [ "obj-110", 0 ],
					"source" : [ "obj-27", 3 ]
				}

			}
, 			{
				"patchline" : 				{
					"destination" : [ "obj-18", 0 ],
					"midpoints" : [ 399.5, 405.0, 490.5, 405.0 ],
					"order" : 0,
					"source" : [ "obj-27", 2 ]
				}

			}
, 			{
				"patchline" : 				{
					"destination" : [ "obj-20", 0 ],
					"midpoints" : [ 284.5, 545.963897705078125, 666.93310546875, 545.963897705078125 ],
					"order" : 0,
					"source" : [ "obj-27", 0 ]
				}

			}
, 			{
				"patchline" : 				{
					"destination" : [ "obj-28", 0 ],
					"midpoints" : [ 342.0, 348.0, 92.833335876464844, 348.0 ],
					"source" : [ "obj-27", 1 ]
				}

			}
, 			{
				"patchline" : 				{
					"destination" : [ "obj-29", 0 ],
					"order" : 1,
					"source" : [ "obj-27", 2 ]
				}

			}
, 			{
				"patchline" : 				{
					"destination" : [ "obj-39", 1 ],
					"order" : 1,
					"source" : [ "obj-27", 0 ]
				}

			}
, 			{
				"patchline" : 				{
					"destination" : [ "obj-3", 0 ],
					"source" : [ "obj-28", 0 ]
				}

			}
, 			{
				"patchline" : 				{
					"destination" : [ "obj-42", 1 ],
					"midpoints" : [ 467.5, 471.0, 229.5, 471.0 ],
					"source" : [ "obj-29", 1 ]
				}

			}
, 			{
				"patchline" : 				{
					"destination" : [ "obj-8", 1 ],
					"midpoints" : [ 399.5, 471.0, 139.333335876464844, 471.0 ],
					"source" : [ "obj-29", 0 ]
				}

			}
, 			{
				"patchline" : 				{
					"destination" : [ "obj-37", 0 ],
					"source" : [ "obj-3", 1 ]
				}

			}
, 			{
				"patchline" : 				{
					"destination" : [ "obj-8", 0 ],
					"source" : [ "obj-3", 0 ]
				}

			}
, 			{
				"patchline" : 				{
					"destination" : [ "obj-38", 0 ],
					"source" : [ "obj-37", 0 ]
				}

			}
, 			{
				"patchline" : 				{
					"destination" : [ "obj-42", 0 ],
					"source" : [ "obj-38", 0 ]
				}

			}
, 			{
				"patchline" : 				{
					"destination" : [ "obj-2", 0 ],
					"midpoints" : [ 44.5, 621.7158203125, 246.55999755859375, 621.7158203125 ],
					"order" : 0,
					"source" : [ "obj-39", 0 ]
				}

			}
, 			{
				"patchline" : 				{
					"destination" : [ "obj-21", 0 ],
					"order" : 1,
					"source" : [ "obj-39", 0 ]
				}

			}
, 			{
				"patchline" : 				{
					"destination" : [ "obj-64", 3 ],
					"source" : [ "obj-42", 0 ]
				}

			}
, 			{
				"patchline" : 				{
					"destination" : [ "obj-1", 0 ],
					"midpoints" : [ 809.5, 98.5, 141.166671752929688, 98.5 ],
					"source" : [ "obj-44", 0 ]
				}

			}
, 			{
				"patchline" : 				{
					"destination" : [ "obj-97", 0 ],
					"source" : [ "obj-49", 0 ]
				}

			}
, 			{
				"patchline" : 				{
					"destination" : [ "obj-72", 0 ],
					"source" : [ "obj-5", 0 ]
				}

			}
, 			{
				"patchline" : 				{
					"destination" : [ "obj-51", 0 ],
					"midpoints" : [ 1265.43310546875, 225.0, 1265.43310546875, 225.0 ],
					"source" : [ "obj-52", 0 ]
				}

			}
, 			{
				"patchline" : 				{
					"destination" : [ "obj-27", 3 ],
					"midpoints" : [ 676.5, 297.0, 399.5, 297.0 ],
					"source" : [ "obj-58", 0 ]
				}

			}
, 			{
				"patchline" : 				{
					"destination" : [ "obj-58", 0 ],
					"source" : [ "obj-60", 0 ]
				}

			}
, 			{
				"patchline" : 				{
					"destination" : [ "obj-39", 0 ],
					"source" : [ "obj-64", 0 ]
				}

			}
, 			{
				"patchline" : 				{
					"destination" : [ "obj-60", 0 ],
					"source" : [ "obj-7", 0 ]
				}

			}
, 			{
				"patchline" : 				{
					"destination" : [ "obj-73", 0 ],
					"source" : [ "obj-71", 0 ]
				}

			}
, 			{
				"patchline" : 				{
					"destination" : [ "obj-27", 0 ],
					"midpoints" : [ 569.5, 289.0, 284.5, 289.0 ],
					"source" : [ "obj-72", 0 ]
				}

			}
, 			{
				"patchline" : 				{
					"destination" : [ "obj-44", 0 ],
					"source" : [ "obj-73", 0 ]
				}

			}
, 			{
				"patchline" : 				{
					"destination" : [ "obj-64", 1 ],
					"source" : [ "obj-8", 0 ]
				}

			}
, 			{
				"patchline" : 				{
					"destination" : [ "obj-90", 0 ],
					"source" : [ "obj-89", 0 ]
				}

			}
, 			{
				"patchline" : 				{
					"destination" : [ "obj-23", 0 ],
					"source" : [ "obj-90", 0 ]
				}

			}
, 			{
				"patchline" : 				{
					"destination" : [ "obj-89", 1 ],
					"source" : [ "obj-91", 0 ]
				}

			}
, 			{
				"patchline" : 				{
					"destination" : [ "obj-49", 0 ],
					"source" : [ "obj-94", 0 ]
				}

			}
, 			{
				"patchline" : 				{
					"destination" : [ "obj-94", 1 ],
					"source" : [ "obj-96", 0 ]
				}

			}
, 			{
				"patchline" : 				{
					"destination" : [ "obj-1", 0 ],
					"midpoints" : [ 537.3330078125, 98.5, 141.166671752929688, 98.5 ],
					"source" : [ "obj-97", 0 ]
				}

			}
, 			{
				"patchline" : 				{
					"destination" : [ "obj-107", 0 ],
					"source" : [ "obj-99", 0 ]
				}

			}
 ],
		"styles" : [ 			{
				"name" : "AudioStatus_Menu",
				"default" : 				{
					"bgfillcolor" : 					{
						"type" : "color",
						"color" : [ 0.294118, 0.313726, 0.337255, 1 ],
						"color1" : [ 0.454902, 0.462745, 0.482353, 0.0 ],
						"color2" : [ 0.290196, 0.309804, 0.301961, 1.0 ],
						"angle" : 270.0,
						"proportion" : 0.39,
						"autogradient" : 0
					}

				}
,
				"parentstyle" : "",
				"multi" : 0
			}
, 			{
				"name" : "ksliderWhite",
				"default" : 				{
					"color" : [ 1, 1, 1, 1 ]
				}
,
				"parentstyle" : "",
				"multi" : 0
			}
, 			{
				"name" : "newobjBlue-1",
				"default" : 				{
					"accentcolor" : [ 0.317647, 0.654902, 0.976471, 1 ]
				}
,
				"parentstyle" : "",
				"multi" : 0
			}
, 			{
				"name" : "newobjGreen-1",
				"default" : 				{
					"accentcolor" : [ 0, 0.533333, 0.168627, 1 ]
				}
,
				"parentstyle" : "",
				"multi" : 0
			}
, 			{
				"name" : "numberGold-1",
				"default" : 				{
					"accentcolor" : [ 0.764706, 0.592157, 0.101961, 1 ]
				}
,
				"parentstyle" : "",
				"multi" : 0
			}
 ]
	}

}
